<?xml version="1.0" standalone="no"?>
<!DOCTYPE svg PUBLIC "-//W3C//DTD SVG 20010904//EN"
 "http://www.w3.org/TR/2001/REC-SVG-20010904/DTD/svg10.dtd">
<svg version="1.0" xmlns="http://www.w3.org/2000/svg"
 width="137.000000pt" height="41.000000pt" viewBox="0 0 137.000000 41.000000"
 preserveAspectRatio="xMidYMid meet">

<g transform="translate(0.000000,41.000000) scale(0.100000,-0.100000)"
fill="#000000" stroke="none">
<path d="M0 205 l0 -205 685 0 685 0 0 205 0 205 -685 0 -685 0 0 -205z m270
75 c0 -5 -7 -10 -15 -10 -8 0 -15 5 -15 10 0 6 7 10 15 10 8 0 15 -4 15 -10z
m680 -80 c0 -53 -4 -90 -10 -90 -6 0 -10 37 -10 90 0 53 4 90 10 90 6 0 10
-37 10 -90z m60 80 c0 -5 -7 -10 -15 -10 -8 0 -15 5 -15 10 0 6 7 10 15 10 8
0 15 -4 15 -10z m-910 -35 c0 -19 4 -35 9 -35 6 0 22 16 37 35 14 19 33 35 41
35 10 0 2 -14 -22 -41 l-37 -41 43 -44 c55 -56 29 -58 -28 -2 l-43 42 0 -42
c0 -23 -4 -42 -10 -42 -6 0 -10 35 -10 85 0 50 4 85 10 85 6 0 10 -16 10 -35z
m625 10 c52 -51 18 -145 -51 -145 -49 0 -70 14 -83 53 -29 88 71 156 134 92z
m-465 -80 c0 -37 -4 -65 -10 -65 -6 0 -10 28 -10 65 0 37 4 65 10 65 6 0 10
-28 10 -65z m60 53 c0 -9 3 -9 12 0 15 15 51 15 66 0 14 -14 16 -118 2 -118
-5 0 -10 18 -10 39 0 51 -8 71 -29 71 -28 0 -41 -21 -41 -67 0 -24 -4 -43 -10
-43 -6 0 -10 28 -10 65 0 37 4 65 10 65 6 0 10 -5 10 -12z m222 -5 c22 -20 23
-70 1 -95 -16 -18 -58 -24 -80 -10 -32 20 -32 94 0 114 20 13 60 9 79 -9z
m258 5 c0 -9 3 -9 12 0 17 17 65 15 72 -4 10 -25 7 -114 -3 -114 -6 0 -11 24
-13 52 -2 43 -7 54 -22 56 -27 6 -46 -24 -46 -70 0 -21 -4 -38 -10 -38 -6 0
-10 28 -10 65 0 37 4 65 10 65 6 0 10 -5 10 -12z m210 -53 c0 -37 -4 -65 -10
-65 -6 0 -10 28 -10 65 0 37 4 65 10 65 6 0 10 -28 10 -65z m138 -2 c2 -37 -1
-63 -7 -63 -5 0 -11 24 -13 52 -2 43 -7 54 -22 56 -27 6 -46 -24 -46 -70 0
-21 -4 -38 -10 -38 -6 0 -10 28 -10 63 l0 64 53 -1 52 -1 3 -62z m136 51 c9
-8 16 -24 16 -35 0 -16 -7 -19 -50 -19 -48 0 -50 -1 -40 -20 11 -21 54 -28 65
-10 12 20 26 10 15 -10 -15 -29 -74 -27 -94 2 -33 46 -7 108 44 108 16 0 36
-7 44 -16z"/>
<path d="M627 242 c-21 -23 -22 -76 -1 -96 37 -37 104 -6 104 49 0 56 -67 86
-103 47z"/>
<path d="M470 206 c-28 -35 11 -93 48 -70 35 22 22 84 -18 84 -10 0 -23 -7
-30 -14z"/>
<path d="M1217 213 c-15 -15 -5 -23 29 -23 31 0 35 2 24 15 -13 16 -42 20 -53
8z"/>
</g>
</svg>
